<svg style="display: none;" aria-hidden="true" xmlns="http://www.w3.org/2000/svg" xmlns:xlink="http://www.w3.org/1999/xlink"><symbol viewBox="0 0 54.75 449" id="svg-kartoshka"><g id="bСлой_2" data-name="Слой 2"><g  id="bСлой_1-2" data-name="Слой 1"><circle fill="#fff" class="bcls-1" cx="52.75" cy="113.25" r="2"/><path class="bcls-2" d="M53.97 113.25L0.13 113.25"/><circle fill="#fff" class="bcls-1" cx="52.75" cy="2" r="2"/><circle fill="#fff" class="bcls-1" cx="52.75" cy="224.5" r="2"/><path class="bcls-2" d="M53.97 224.5L0.24 224.49"/><circle  fill="#fff" class="bcls-1" cx="52.75" cy="335.75" r="2"/><path class="bcls-2" d="M53.97 335.75L0.13 335.75"/><circle fill="#fff" class="bcls-1" cx="52.75" cy="447" r="2"/><path class="bcls-3" d="M54,447h0A53.72,53.72,0,0,1,.25,393.28V55.72A53.72,53.72,0,0,1,54,2h0"/></g></g></symbol>
<symbol viewBox="0 0 54.75 449" id="svg-jija"><g id="bСлой_2" data-name="Слой 2"><g  id="bСлой_1-2" data-name="Слой 1"><circle fill="#fff" class="bcls-1" cx="52.75" cy="2" r="2"/><circle fill="#fff" class="bcls-1" cx="52.75" cy="224.5" r="2"/><path class="bcls-2" d="M53.97 224.5L0.24 224.49"/><circle fill="#fff" class="bcls-1" cx="52.75" cy="447" r="2"/><path class="bcls-3" d="M54,447h0A53.72,53.72,0,0,1,.25,393.28V55.72A53.72,53.72,0,0,1,54,2h0"/></g></g></symbol></svg>