<svg width="85" height="85" viewBox="0 0 85 85" fill="none" xmlns="http://www.w3.org/2000/svg">
<path d="M42.5 0C30.9465 0 29.5067 0.0557882 24.9852 0.247062C20.4451 0.470215 17.374 1.17421 14.6643 2.22622C11.8283 3.29687 9.25995 4.97316 7.13824 7.13824C4.96712 9.25499 3.2899 11.8248 2.22622 14.6643C1.17421 17.374 0.470215 20.4451 0.247062 24.9852C0.0425053 29.5093 0 30.9465 0 42.5C0 54.0535 0.0557882 55.4933 0.247062 60.0149C0.470215 64.5417 1.17421 67.626 2.22622 70.3357C3.29687 73.1717 4.97316 75.7401 7.13824 77.8618C9.25499 80.0329 11.8248 81.7101 14.6643 82.7738C17.374 83.8125 20.4583 84.5298 24.9852 84.7529C29.5093 84.9575 30.9465 85 42.5 85C54.0535 85 55.4933 84.9442 60.0148 84.7529C64.5417 84.5298 67.626 83.8099 70.3357 82.7738C73.1717 81.7031 75.74 80.0268 77.8618 77.8618C80.0357 75.7473 81.7133 73.1768 82.7738 70.3357C83.8125 67.626 84.5298 64.5417 84.7529 60.0149C84.9575 55.4907 85 54.0535 85 42.5C85 30.9465 84.9442 29.5067 84.7529 24.9852C84.5298 20.4583 83.8099 17.3581 82.7738 14.6643C81.7031 11.8283 80.0268 9.25995 77.8618 7.13824C75.7473 4.96433 73.1768 3.28667 70.3357 2.22622C67.626 1.17421 64.5417 0.470215 60.0148 0.247062C55.4907 0.0425053 54.0535 0 42.5 0ZM42.5 7.65096C53.8463 7.65096 55.2011 7.70675 59.6854 7.89802C63.8217 8.09195 66.0745 8.78266 67.5702 9.36711C69.4192 10.0496 71.0928 11.136 72.4689 12.547C73.8775 13.9174 74.9598 15.5871 75.6355 17.4325C76.22 18.9281 76.9107 21.1809 77.1046 25.3172C77.2959 29.8015 77.3517 31.1591 77.3517 42.5027C77.3517 53.8463 77.2959 55.2038 77.0887 59.6881C76.8655 63.8244 76.1748 66.0772 75.593 67.5728C74.7881 69.5679 73.8902 70.9626 72.4078 72.4716C71.027 73.8738 69.3545 74.9549 67.5091 75.6382C66.032 76.2227 63.7473 76.9134 59.5951 77.1073C55.0869 77.2986 53.7586 77.3544 42.3831 77.3544C31.0076 77.3544 29.682 77.2986 25.1685 77.0914C21.0322 76.8682 18.7502 76.1775 17.2545 75.5957C15.2355 74.7908 13.8514 73.8928 12.369 72.4105C10.8734 70.9148 9.92233 69.4909 9.18912 67.5117C8.59404 66.0347 7.91396 63.75 7.69346 59.5978C7.54204 55.1427 7.47031 53.7613 7.47031 42.4389C7.47031 31.1219 7.54204 29.7378 7.69346 25.2269C7.91396 21.0747 8.59404 18.7953 9.18912 17.3129C9.92233 15.2913 10.876 13.9099 12.369 12.4142C13.8488 10.9345 15.2355 9.97812 17.2545 9.22897C18.7502 8.64718 20.9764 7.95646 25.1286 7.74925C29.6368 7.5872 30.9651 7.52875 42.3247 7.52875L42.5 7.65096ZM42.5 20.6868C39.6345 20.6858 36.7968 21.2494 34.1492 22.3455C31.5016 23.4416 29.0959 25.0487 27.0697 27.075C25.0434 29.1012 23.4363 31.5069 22.3402 34.1545C21.2441 36.8021 20.6804 39.6398 20.6815 42.5053C20.6804 45.3709 21.2441 48.2085 22.3402 50.8561C23.4363 53.5038 25.0434 55.9094 27.0697 57.9357C29.0959 59.9619 31.5016 61.569 34.1492 62.6651C36.7968 63.7612 39.6345 64.3249 42.5 64.3238C45.3655 64.3249 48.2032 63.7612 50.8508 62.6651C53.4984 61.569 55.9041 59.9619 57.9304 57.9357C59.9566 55.9094 61.5637 53.5038 62.6598 50.8561C63.7559 48.2085 64.3196 45.3709 64.3185 42.5053C64.3196 39.6398 63.7559 36.8021 62.6598 34.1545C61.5637 31.5069 59.9566 29.1012 57.9304 27.075C55.9041 25.0487 53.4984 23.4416 50.8508 22.3455C48.2032 21.2494 45.3655 20.6858 42.5 20.6868ZM42.5 56.6729C34.6684 56.6729 28.3324 50.3369 28.3324 42.5053C28.3324 34.6737 34.6684 28.3378 42.5 28.3378C50.3316 28.3378 56.6676 34.6737 56.6676 42.5053C56.6676 50.3369 50.3316 56.6729 42.5 56.6729ZM70.2985 19.8154C70.2971 21.1694 69.7582 22.4674 68.8003 23.4243C67.8424 24.3812 66.5438 24.9187 65.1899 24.9187C64.5204 24.9187 63.8575 24.7869 63.239 24.5307C62.6204 24.2745 62.0584 23.899 61.5851 23.4256C61.1117 22.9522 60.7361 22.3902 60.4799 21.7717C60.2238 21.1532 60.0919 20.4902 60.0919 19.8208C60.0919 19.1513 60.2238 18.4884 60.4799 17.8698C60.7361 17.2513 61.1117 16.6893 61.5851 16.2159C62.0584 15.7426 62.6204 15.367 63.239 15.1108C63.8575 14.8546 64.5204 14.7228 65.1899 14.7228C67.9979 14.7228 70.2985 17.0074 70.2985 19.8154Z" fill="url(#paint0_linear_472_27)" fill-opacity="0.9"/>
<defs>
<linearGradient id="paint0_linear_472_27" x1="42.5" y1="0" x2="42.5" y2="85" gradientUnits="userSpaceOnUse">
<stop stop-color="#BF953F"/>
<stop offset="0.223958" stop-color="#FCF6BA"/>
<stop offset="0.46875" stop-color="#B38728"/>
<stop offset="0.744792" stop-color="#FBF5B7"/>
<stop offset="0.994792" stop-color="#AA771C"/>
</linearGradient>
</defs>
</svg>
