<svg width="85" height="81" viewBox="0 0 85 81" fill="none" xmlns="http://www.w3.org/2000/svg">
<path d="M42.5 0C34.0943 0 25.8774 2.37528 18.8883 6.82548C11.8992 11.2757 6.45186 17.6009 3.23514 25.0013C0.0184147 32.4017 -0.823227 40.5449 0.816645 48.4011C2.45652 56.2574 6.50425 63.4738 12.448 69.1378C18.3917 74.8018 25.9645 78.6591 34.2087 80.2218C42.4529 81.7845 50.9982 80.9824 58.764 77.9171C66.5299 74.8518 73.1675 69.6608 77.8375 63.0006C82.5074 56.3404 85 48.5101 85 40.5C85 35.1815 83.9007 29.915 81.7649 25.0013C79.6291 20.0876 76.4985 15.6229 72.552 11.8622C68.6056 8.1014 63.9204 5.11819 58.764 3.08288C53.6077 1.04756 48.0812 0 42.5 0ZM56.015 61.3656C55.8564 61.7439 55.6147 62.0856 55.306 62.3675C54.9974 62.6495 54.629 62.8652 54.2256 63.0003C53.8222 63.1353 53.3932 63.1865 52.9673 63.1505C52.5414 63.1144 52.1286 62.9919 51.7565 62.7912L40.2178 54.2457L32.8143 60.7581C32.6424 60.879 32.4414 60.9568 32.2298 60.9844C32.0182 61.012 31.8026 60.9885 31.603 60.916L33.0225 48.8106L33.065 48.847L33.0948 48.6081C33.0948 48.6081 53.856 30.5937 54.7018 29.8282C55.5603 29.0628 55.2755 28.8967 55.2755 28.8967C55.3265 27.9652 53.7413 28.8967 53.7413 28.8967L26.231 45.7609L14.7773 42.043C14.7773 42.043 13.0178 41.4436 12.852 40.1193C12.6778 38.8071 14.8325 38.0943 14.8325 38.0943L60.3798 20.8494C60.3798 20.8494 64.124 19.2618 64.124 21.8943L56.015 61.3656Z" fill="url(#paint0_linear_472_37)" fill-opacity="0.9"/>
<defs>
<linearGradient id="paint0_linear_472_37" x1="42.5" y1="0" x2="42.5" y2="81" gradientUnits="userSpaceOnUse">
<stop stop-color="#BF953F"/>
<stop offset="0.223958" stop-color="#FCF6BA"/>
<stop offset="0.46875" stop-color="#B38728"/>
<stop offset="0.744792" stop-color="#FBF5B7"/>
<stop offset="0.994792" stop-color="#AA771C"/>
</linearGradient>
</defs>
</svg>
