<svg width="85" height="90" viewBox="0 0 85 90" fill="none" xmlns="http://www.w3.org/2000/svg">
<path d="M75.4145 8.71251C73.1913 6.66815 64.1936 0.150669 44.1326 0.0633036C44.1326 0.0633036 20.483 -1.35202 8.96451 9.20175C2.55759 15.5969 0.299407 24.98 0.0543332 36.5996C-0.19074 48.2193 -0.48833 69.9908 20.5355 75.8967H20.553L20.5355 84.9128C20.5355 84.9128 20.3954 88.5647 22.8112 89.2986C25.717 90.2072 27.4326 87.429 30.2159 84.4411C31.7389 82.7986 33.8395 80.3873 35.4325 78.5526C49.8218 79.7583 60.8676 76.9975 62.128 76.5956C65.0339 75.6521 81.4713 73.5553 84.1321 51.7838C86.8979 29.3133 82.8017 15.1251 75.4145 8.71251ZM77.8477 50.1413C75.5895 68.3134 62.268 69.4666 59.8173 70.2529C58.767 70.5849 49.0516 72.9962 36.8504 72.2099C36.8504 72.2099 27.7477 83.1655 24.9118 86.0136C23.984 86.9397 22.9687 86.8524 22.9862 85.0177C22.9862 83.812 23.0562 70.0432 23.0562 70.0432C23.0387 70.0432 23.0387 70.0432 23.0562 70.0432C5.23589 65.1158 6.28621 46.5768 6.47876 36.8792C6.67132 27.1816 8.50937 19.2313 13.936 13.8846C23.6864 5.06062 43.765 6.37111 43.765 6.37111C60.7276 6.441 68.85 11.5432 70.7406 13.2555C76.99 18.6023 80.1759 31.3926 77.8477 50.1413ZM53.5154 36.023C53.5854 37.5257 51.3272 37.6305 51.2572 36.1279C51.0647 32.2838 49.2616 30.4141 45.5505 30.2045C44.0451 30.1171 44.1851 27.8631 45.673 27.9504C50.557 28.2125 53.2703 31.0082 53.5154 36.023ZM57.069 37.9975C57.244 30.5889 52.6051 24.7878 43.8 24.1413C42.312 24.0364 42.4696 21.7824 43.9575 21.8872C54.1106 22.6211 59.5197 29.5929 59.3271 38.0499C59.3096 39.5526 57.034 39.4827 57.069 37.9975ZM65.2964 40.3389C65.3139 41.8416 63.0383 41.859 63.0383 40.3564C62.9332 26.1157 53.4279 18.3577 41.8919 18.2703C40.404 18.2528 40.404 16.0163 41.8919 16.0163C54.7933 16.1036 65.1739 24.9975 65.2964 40.3389ZM63.3183 57.48V57.515C61.4278 60.8349 57.8917 64.5042 54.2506 63.3335L54.2156 63.2811C50.522 62.2502 41.8219 57.7771 36.3252 53.4088C33.4894 51.1722 30.8986 48.5338 28.903 46.0002C27.1 43.7461 25.2794 41.0728 23.5114 37.8577C19.7828 31.1305 18.96 28.1252 18.96 28.1252C17.7872 24.4907 21.4458 20.9612 24.7893 19.0741H24.8243C26.4348 18.2354 27.9752 18.5149 29.008 19.7555C29.008 19.7555 31.1787 22.3416 32.1065 23.6171C32.9817 24.8053 34.1546 26.7098 34.7673 27.7757C35.8351 29.6803 35.1699 31.6198 34.1196 32.4236L32.0189 34.101C30.9511 34.9572 31.0912 36.5472 31.0912 36.5472C31.0912 36.5472 34.2071 48.3066 45.8481 51.2771C45.8481 51.2771 47.4411 51.4168 48.2988 50.351L49.9793 48.2542C50.7846 47.2058 52.7277 46.5418 54.6357 47.6077C57.209 49.058 60.4825 51.312 62.6531 53.3564C63.8785 54.3523 64.1586 55.8725 63.3183 57.48Z" fill="url(#paint0_linear_472_36)" fill-opacity="0.9"/>
<defs>
<linearGradient id="paint0_linear_472_36" x1="42.5" y1="0" x2="42.5" y2="89.4737" gradientUnits="userSpaceOnUse">
<stop stop-color="#BF953F"/>
<stop offset="0.223958" stop-color="#FCF6BA"/>
<stop offset="0.46875" stop-color="#B38728"/>
<stop offset="0.744792" stop-color="#FBF5B7"/>
<stop offset="0.994792" stop-color="#AA771C"/>
</linearGradient>
</defs>
</svg>
