<svg width="23" height="43" viewBox="0 0 23 43" fill="none" xmlns="http://www.w3.org/2000/svg">
<path d="M21.9545 -3.7233e-06C22.1613 -1.13708e-05 22.3634 0.0600205 22.5353 0.172504C22.7072 0.284985 22.8412 0.444862 22.9204 0.63192C22.9995 0.818981 23.0202 1.02482 22.9799 1.22342C22.9396 1.42201 22.8401 1.60444 22.6939 1.74764L2.52402 21.5L22.6939 41.2523C22.8899 41.4444 23 41.7048 23 41.9763C22.9999 42.2479 22.8897 42.5083 22.6936 42.7003C22.4975 42.8922 22.2316 43 21.9543 43C21.677 43 21.4111 42.892 21.2151 42.7L0.306101 22.2238C0.110109 22.0318 3.86619e-06 21.7715 3.84245e-06 21.5C3.81872e-06 21.2285 0.110109 20.9681 0.306101 20.7762L21.2151 0.299973C21.3121 0.204727 21.4273 0.129196 21.5542 0.077717C21.6811 0.0262376 21.8172 -0.000175373 21.9545 -3.7233e-06Z" fill="#ECECEC" fill-opacity="0.4"/>
</svg>
