<?xml version="1.0" standalone="no"?>
<!DOCTYPE svg PUBLIC "-//W3C//DTD SVG 20010904//EN"
 "http://www.w3.org/TR/2001/REC-SVG-20010904/DTD/svg10.dtd">
<svg version="1.0" xmlns="http://www.w3.org/2000/svg"
 width="700.000000pt" height="700.000000pt" viewBox="0 0 700.000000 700.000000"
 preserveAspectRatio="xMidYMid meet">
<metadata>
Created by potrace 1.14, written by Peter Selinger 2001-2017
</metadata>
<g transform="translate(0.000000,700.000000) scale(0.100000,-0.100000)"
fill="#000000" stroke="none">
<path d="M0 3500 l0 -3500 3500 0 3500 0 0 3500 0 3500 -3500 0 -3500 0 0
-3500z m3800 1725 c234 -42 527 -164 712 -297 464 -335 738 -865 738 -1428 0
-754 -491 -1429 -1210 -1664 -754 -246 -1583 51 -2015 722 -62 97 -147 275
-185 389 -226 679 -13 1433 535 1891 260 217 556 348 900 397 126 18 394 13
525 -10z"/>
</g>
</svg>
