<svg width="15" height="26" viewBox="0 0 15 26" fill="none" xmlns="http://www.w3.org/2000/svg">
<path d="M14.9999 17.515C14.9999 12.9 11.2199 12.374 8.18292 11.952C4.87292 11.492 2.99992 11.092 2.99992 8.242C2.99992 5.85 5.50692 5 7.65392 5C8.72387 4.96544 9.78671 5.18569 10.7548 5.64262C11.7229 6.09954 12.5685 6.78004 13.2219 7.628L14.7779 6.372C14.0782 5.47217 13.2075 4.71952 12.2159 4.1573C11.2243 3.59509 10.1314 3.23441 8.99992 3.096V0H6.99992V3.022C3.38492 3.242 0.999924 5.282 0.999924 8.242C0.999924 12.972 4.82992 13.505 7.90692 13.932C11.1599 14.385 12.9999 14.774 12.9999 17.515C12.9999 20.547 9.86692 21 7.99992 21C4.56992 21 3.12192 20.036 1.77792 18.372L0.221924 19.628C1.01468 20.6727 2.04003 21.5182 3.21659 22.0975C4.39315 22.6767 5.68853 22.9737 6.99992 22.965V26H8.99992V22.955C12.7259 22.651 14.9999 20.628 14.9999 17.515Z" fill="#263238" fill-opacity="0.4"/>
</svg>
