<?xml version="1.0" standalone="no"?>
<!DOCTYPE svg PUBLIC "-//W3C//DTD SVG 20010904//EN"
 "http://www.w3.org/TR/2001/REC-SVG-20010904/DTD/svg10.dtd">
<svg version="1.0" xmlns="http://www.w3.org/2000/svg"
 width="784.000000pt" height="784.000000pt" viewBox="0 0 784.000000 784.000000"
 preserveAspectRatio="xMidYMid meet">
<metadata>
Created by potrace 1.14, written by Peter Selinger 2001-2017
</metadata>
<g transform="translate(0.000000,784.000000) scale(0.100000,-0.100000)"
fill="#000000" stroke="none">
<path d="M3795 6683 c-22 -15 -44 -31 -50 -35 -5 -5 -48 -35 -95 -69 -47 -33
-92 -65 -100 -72 -64 -53 -110 -71 -124 -48 -4 5 -14 8 -24 6 -9 -1 -21 1 -27
5 -8 7 -68 20 -195 45 -81 16 -131 19 -275 20 -141 0 -267 -9 -285 -20 -4 -2
-21 -7 -38 -10 -35 -6 -112 -30 -152 -47 -14 -5 -38 -16 -55 -23 -48 -20 -90
-40 -95 -45 -5 -5 -18 -12 -75 -44 -10 -6 -25 -15 -31 -21 -6 -5 -25 -19 -40
-30 -65 -46 -244 -219 -244 -237 0 -4 -6 -13 -13 -20 -26 -27 -87 -116 -87
-127 0 -6 -4 -11 -8 -11 -10 0 -88 -158 -81 -164 2 -3 38 -7 79 -10 111 -8
156 -13 330 -32 30 -3 66 -8 80 -10 14 -3 43 -7 65 -10 91 -12 215 -49 215
-65 0 -5 -15 -16 -32 -24 -159 -69 -164 -72 -255 -165 -60 -61 -186 -223 -210
-270 -8 -17 -19 -30 -24 -30 -5 0 -8 -3 -7 -7 1 -5 -5 -19 -14 -33 -131 -206
-285 -588 -333 -825 -23 -114 -27 -277 -9 -360 8 -39 19 -90 25 -115 5 -25 12
-56 15 -70 8 -42 46 -244 50 -270 2 -14 6 -36 9 -50 3 -14 7 -45 10 -70 3 -25
9 -58 12 -75 3 -16 7 -41 9 -55 8 -72 15 -127 19 -140 2 -8 7 -42 11 -75 3
-33 8 -67 9 -75 2 -8 6 -44 10 -80 3 -36 11 -94 16 -130 5 -36 9 -68 9 -73 0
-7 119 54 150 77 8 6 31 20 50 30 38 20 128 77 172 107 15 11 31 19 37 19 5 0
11 3 13 8 2 4 32 27 68 51 65 45 169 123 201 151 9 8 38 33 65 55 48 40 234
224 266 263 47 59 130 185 161 248 32 63 77 198 92 277 4 24 10 49 20 97 2 8
4 15 5 15 1 0 3 11 6 25 2 14 11 59 19 100 21 103 24 121 31 155 3 17 7 37 9
45 2 8 7 40 11 70 4 30 9 57 9 60 1 3 5 28 10 55 4 28 9 59 11 70 2 11 7 40
10 65 9 72 13 92 19 98 3 3 5 -8 6 -24 1 -85 17 -311 23 -351 3 -15 8 -53 11
-83 3 -30 8 -71 11 -90 2 -19 6 -51 9 -70 2 -19 7 -55 10 -80 3 -25 7 -56 10
-70 3 -14 7 -43 10 -65 3 -22 7 -51 9 -65 2 -14 10 -59 16 -100 6 -41 14 -86
17 -100 7 -28 8 -34 19 -105 4 -27 9 -57 11 -65 1 -8 5 -28 7 -45 3 -16 9 -48
14 -70 9 -40 9 -40 -22 -41 -72 -2 -122 -8 -139 -17 -10 -5 -30 -11 -43 -13
-71 -13 -207 -99 -279 -176 -48 -51 -111 -140 -107 -150 1 -5 -2 -8 -7 -8 -9
0 -71 -150 -77 -190 -3 -14 -7 -32 -10 -40 -26 -68 -25 -360 1 -470 3 -14 7
-34 9 -45 2 -11 6 -30 10 -42 4 -12 8 -30 10 -40 2 -10 14 -47 27 -83 138
-402 499 -685 992 -781 138 -27 197 -32 367 -33 132 0 240 7 296 18 12 2 39 7
60 10 74 12 203 64 281 112 81 51 212 173 276 259 20 28 41 55 47 62 5 7 10
16 10 20 0 4 9 19 20 33 20 25 105 190 126 245 12 32 63 172 69 192 3 9 11 10
30 3 44 -17 77 -21 172 -25 82 -2 113 1 202 19 67 15 187 64 271 111 95 54
230 173 335 295 23 27 105 158 105 168 0 6 4 12 8 14 7 3 73 147 79 172 1 6
12 43 23 81 11 39 23 90 26 115 10 77 12 268 4 312 -5 24 -11 57 -14 73 -12
71 -36 155 -48 171 -5 7 -11 22 -13 34 -11 56 -115 237 -199 345 -70 89 -249
269 -321 322 -101 75 -205 134 -285 162 -36 13 -74 27 -85 31 -11 5 -27 8 -35
8 -8 0 -38 5 -66 9 -47 9 -180 8 -214 0 -8 -2 -28 -7 -45 -11 -94 -24 -190
-68 -277 -127 -77 -52 -89 -62 -172 -145 -74 -75 -82 -84 -149 -176 -23 -32
-45 -58 -48 -58 -9 0 -172 162 -201 202 -15 20 -34 42 -41 50 -24 24 -125 172
-162 238 -84 150 -240 505 -234 533 0 1 -8 25 -19 52 -18 46 -95 334 -106 398
-3 15 -7 36 -11 46 -3 11 -7 35 -9 53 -2 19 -6 43 -9 54 -3 10 -13 69 -22 129
-42 298 -42 294 7 442 23 71 43 130 43 133 1 3 5 13 9 22 4 9 8 22 10 30 1 7
5 18 8 24 4 6 9 21 12 35 2 13 12 44 20 68 21 59 21 63 -15 84 -40 23 -47 22
-94 -10z m-170 -759 c2 -19 10 -66 21 -114 3 -14 7 -34 9 -45 8 -48 55 -247
62 -265 3 -8 7 -19 8 -25 15 -64 32 -121 51 -170 4 -11 8 -22 9 -25 2 -10 37
-116 42 -130 3 -8 7 -19 8 -25 10 -40 173 -425 185 -435 5 -5 32 -62 31 -67 0
-3 97 -174 136 -238 40 -67 47 -78 66 -99 9 -11 17 -23 17 -28 0 -4 7 -16 15
-25 7 -10 44 -58 81 -108 37 -49 80 -103 96 -120 15 -16 28 -35 28 -41 0 -10
-10 -31 -83 -166 l-31 -58 -67 0 c-81 0 -154 -14 -229 -43 -52 -20 -63 -26
-93 -53 -27 -24 -205 -143 -258 -173 l-55 -31 -25 42 c-58 102 -97 179 -129
258 -12 30 -26 66 -32 80 -13 34 -39 109 -43 129 -3 9 -13 49 -24 89 -10 39
-17 72 -15 72 3 0 0 8 -5 18 -5 10 -12 38 -15 63 -3 24 -9 58 -12 74 -34 178
-38 561 -9 775 2 19 7 55 10 79 3 24 15 87 26 140 11 53 21 105 23 116 6 39
84 309 103 355 3 8 7 22 9 30 3 13 18 54 50 128 8 18 14 40 14 48 0 22 23 12
25 -12z"/>
</g>
</svg>
