<svg width="48" height="48" viewBox="0 0 48 48" fill="none" xmlns="http://www.w3.org/2000/svg">
<path fill-rule="evenodd" clip-rule="evenodd" d="M14.0376 0.143308C16.5846 0.0260559 17.3967 0 23.8846 0C30.3725 0 31.1846 0.0282272 33.7294 0.143308C36.2742 0.258388 38.0113 0.664427 39.5312 1.25286C41.1228 1.85431 42.5667 2.7945 43.761 4.01044C44.9769 5.2025 45.9149 6.64427 46.5142 8.23802C47.1048 9.75795 47.5087 11.495 47.6259 14.0355C47.7432 16.5868 47.7692 17.3989 47.7692 23.8846C47.7692 30.3725 47.741 31.1846 47.6259 33.7316C47.5108 36.272 47.1048 38.0091 46.5142 39.529C45.9149 41.123 44.9753 42.5672 43.761 43.761C42.5667 44.9769 41.1228 45.9149 39.5312 46.5142C38.0113 47.1048 36.2742 47.5087 33.7338 47.6259C31.1846 47.7432 30.3725 47.7692 23.8846 47.7692C17.3967 47.7692 16.5846 47.741 14.0376 47.6259C11.4972 47.5108 9.76012 47.1048 8.24019 46.5142C6.64626 45.9148 5.20211 44.9753 4.00827 43.761C2.79315 42.5682 1.85283 41.1247 1.25286 39.5312C0.664427 38.0113 0.260559 36.2742 0.143308 33.7338C0.0260559 31.1824 0 30.3704 0 23.8846C0 17.3967 0.0282272 16.5846 0.143308 14.0398C0.258388 11.495 0.664427 9.75795 1.25286 8.23802C1.85371 6.64444 2.79476 5.20101 4.01044 4.00827C5.20259 2.79342 6.64529 1.85311 8.23802 1.25286C9.75795 0.664427 11.495 0.260559 14.0355 0.143308H14.0376ZM33.5362 4.44254C31.0174 4.32746 30.2618 4.30357 23.8846 4.30357C17.5074 4.30357 16.7518 4.32746 14.2331 4.44254C11.9032 4.54893 10.6395 4.9376 9.79703 5.26547C8.68314 5.69974 7.88627 6.21434 7.0503 7.0503C6.25787 7.82124 5.64802 8.75975 5.26547 9.79703C4.9376 10.6395 4.54893 11.9032 4.44254 14.2331C4.32746 16.7518 4.30357 17.5074 4.30357 23.8846C4.30357 30.2618 4.32746 31.0174 4.44254 33.5362C4.54893 35.866 4.9376 37.1297 5.26547 37.9722C5.64763 39.0079 6.25777 39.9481 7.0503 40.7189C7.82113 41.5115 8.76131 42.1216 9.79703 42.5038C10.6395 42.8316 11.9032 43.2203 14.2331 43.3267C16.7518 43.4418 17.5053 43.4657 23.8846 43.4657C30.264 43.4657 31.0174 43.4418 33.5362 43.3267C35.866 43.2203 37.1297 42.8316 37.9722 42.5038C39.0861 42.0695 39.883 41.5549 40.7189 40.7189C41.5115 39.9481 42.1216 39.0079 42.5038 37.9722C42.8316 37.1297 43.2203 35.866 43.3267 33.5362C43.4418 31.0174 43.4657 30.2618 43.4657 23.8846C43.4657 17.5074 43.4418 16.7518 43.3267 14.2331C43.2203 11.9032 42.8316 10.6395 42.5038 9.79703C42.0695 8.68314 41.5549 7.88627 40.7189 7.0503C39.9479 6.25792 39.0094 5.64808 37.9722 5.26547C37.1297 4.9376 35.866 4.54893 33.5362 4.44254ZM20.8339 31.2476C22.5376 31.9568 24.4348 32.0525 26.2013 31.5184C27.9678 30.9843 29.494 29.8534 30.5193 28.319C31.5447 26.7846 32.0055 24.9418 31.8231 23.1053C31.6407 21.2689 30.8264 19.5528 29.5192 18.25C28.6859 17.4173 27.6784 16.7796 26.5691 16.383C25.4598 15.9864 24.2764 15.8406 23.104 15.9563C21.9316 16.0719 20.7995 16.446 19.7891 17.0517C18.7786 17.6574 17.9151 18.4796 17.2605 19.4591C16.606 20.4386 16.1768 21.5511 16.0038 22.7164C15.8308 23.8816 15.9183 25.0708 16.2601 26.1982C16.6018 27.3256 17.1893 28.3632 17.9802 29.2363C18.771 30.1095 19.7457 30.7964 20.8339 31.2476ZM15.2036 15.2036C16.3436 14.0636 17.697 13.1593 19.1865 12.5424C20.676 11.9254 22.2724 11.6079 23.8846 11.6079C25.4968 11.6079 27.0932 11.9254 28.5827 12.5424C30.0722 13.1593 31.4256 14.0636 32.5656 15.2036C33.7056 16.3436 34.6099 17.697 35.2268 19.1865C35.8438 20.676 36.1614 22.2724 36.1614 23.8846C36.1614 25.4968 35.8438 27.0932 35.2268 28.5827C34.6099 30.0722 33.7056 31.4256 32.5656 32.5656C30.2632 34.8679 27.1406 36.1614 23.8846 36.1614C20.6286 36.1614 17.506 34.8679 15.2036 32.5656C12.9013 30.2632 11.6079 27.1406 11.6079 23.8846C11.6079 20.6286 12.9013 17.506 15.2036 15.2036ZM38.8842 13.4362C39.1667 13.1697 39.3928 12.8492 39.5492 12.4938C39.7057 12.1383 39.7892 11.7551 39.7948 11.3668C39.8005 10.9784 39.7282 10.5929 39.5822 10.2331C39.4362 9.87319 39.2195 9.54627 38.9449 9.27166C38.6703 8.99705 38.3433 8.78033 37.9835 8.63433C37.6236 8.48833 37.2381 8.41602 36.8498 8.42168C36.4614 8.42734 36.0782 8.51086 35.7228 8.66728C35.3673 8.82371 35.0468 9.04987 34.7803 9.33237C34.2621 9.88178 33.9783 10.6115 33.9893 11.3668C34.0003 12.122 34.3052 12.8431 34.8393 13.3772C35.3734 13.9113 36.0946 14.2162 36.8498 14.2272C37.605 14.2382 38.3347 13.9545 38.8842 13.4362Z" fill="white"/>
</svg>
