<svg width="53" height="53" viewBox="0 0 53 53" fill="none" xmlns="http://www.w3.org/2000/svg">
<path d="M26.0335 0C11.6521 0 0 11.6621 0 26.0559C0 40.4498 11.6521 52.1119 26.0335 52.1119C40.4149 52.1119 52.0669 40.4498 52.0669 26.0559C52.0669 11.6621 40.4149 0 26.0335 0ZM38.8193 17.8504L34.5468 38.0018C34.2319 39.4306 33.3816 39.7773 32.1954 39.1049L25.6871 34.3035L22.5483 37.3293C22.2019 37.6761 21.908 37.9702 21.2362 37.9702L21.6981 31.3407L33.7595 20.435C34.2844 19.9727 33.6441 19.7101 32.9512 20.1723L18.045 29.5651L11.6206 27.5584C10.2244 27.1171 10.1929 26.161 11.9145 25.4886L37.0137 15.8017C38.1789 15.3814 39.1972 16.0853 38.8193 17.8504Z" fill="white"/>
</svg>
