<svg width="50" height="53" viewBox="0 0 50 53" fill="none" xmlns="http://www.w3.org/2000/svg">
<path d="M43.8483 5.07504C42.5557 3.8842 37.3242 0.0877649 25.6601 0.0368744C25.6601 0.0368744 11.9094 -0.787552 5.21225 5.36002C1.48706 9.08521 0.174084 14.5508 0.031591 21.3193C-0.110902 28.0877 -0.28393 40.7696 11.94 44.2098H11.9501L11.94 49.4617C11.94 49.4617 11.8585 51.589 13.2631 52.0164C14.9527 52.5457 15.9501 50.9274 17.5685 49.1869C18.454 48.2302 19.6753 46.8256 20.6015 45.7569C28.9679 46.4592 35.3903 44.8511 36.1231 44.617C37.8127 44.0673 47.3699 42.846 48.917 30.1641C50.5252 17.075 48.1435 8.8104 43.8483 5.07504ZM45.2631 29.2073C43.9501 39.7925 36.2046 40.4643 34.7796 40.9223C34.1689 41.1157 28.5201 42.5203 21.426 42.0623C21.426 42.0623 16.1333 48.4439 14.4845 50.103C13.9451 50.6424 13.3547 50.5915 13.3649 49.5228C13.3649 48.8205 13.4056 40.8002 13.4056 40.8002C13.3954 40.8002 13.3954 40.8002 13.4056 40.8002C3.04431 37.93 3.655 27.131 3.76695 21.4821C3.87891 15.8333 4.94761 11.2023 8.10283 8.08775C13.772 2.94781 25.4463 3.71117 25.4463 3.71117C35.3089 3.75188 40.0315 6.72389 41.1308 7.72134C44.7644 10.8358 46.6168 18.2862 45.2631 29.2073ZM31.1155 20.9834C31.1562 21.8587 29.8433 21.9198 29.8025 21.0445C29.6906 18.8053 28.6422 17.7162 26.4845 17.5941C25.6092 17.5432 25.6906 16.2302 26.5557 16.2811C29.3954 16.4338 30.973 18.0623 31.1155 20.9834ZM33.1817 22.1335C33.2835 17.818 30.5863 14.4389 25.4667 14.0623C24.6015 14.0012 24.6931 12.6883 25.5583 12.7493C31.4616 13.1768 34.6066 17.2379 34.4946 22.1641C34.4845 23.0394 33.1613 22.9987 33.1817 22.1335ZM37.9654 23.4974C37.9756 24.3727 36.6524 24.3829 36.6524 23.5076C36.5913 15.2124 31.0646 10.6933 24.3573 10.6425C23.4921 10.6323 23.4921 9.32948 24.3573 9.32948C31.8585 9.38037 37.8941 14.561 37.9654 23.4974ZM36.8153 33.4821V33.5025C35.716 35.4363 33.66 37.5737 31.543 36.8918L31.5226 36.8613C29.3751 36.2607 24.3165 33.6552 21.1206 31.1106C19.4718 29.8078 17.9654 28.2709 16.8051 26.7951C15.7568 25.4821 14.6982 23.9249 13.6702 22.0521C11.5023 18.1335 11.0239 16.3829 11.0239 16.3829C10.342 14.2659 12.4692 12.2099 14.4132 11.1107H14.4336C15.37 10.6221 16.2657 10.785 16.8662 11.5076C16.8662 11.5076 18.1283 13.014 18.6677 13.757C19.1766 14.4491 19.8585 15.5585 20.2148 16.1793C20.8356 17.2888 20.4489 18.4185 19.8382 18.8867L18.6168 19.8638C17.9959 20.3625 18.0774 21.2888 18.0774 21.2888C18.0774 21.2888 19.8891 28.1386 26.6575 29.8689C26.6575 29.8689 27.5837 29.9503 28.0824 29.3295L29.0595 28.1081C29.5277 27.4974 30.6575 27.1106 31.7669 27.7315C33.2631 28.5763 35.1664 29.8892 36.4285 31.0801C37.141 31.6602 37.3038 32.5457 36.8153 33.4821Z" fill="white"/>
</svg>
