<svg width="95" height="40" viewBox="0 0 95 40" fill="none" xmlns="http://www.w3.org/2000/svg">
<path d="M43.0322 24.634C42.3248 24.634 41.7892 25.2841 41.9118 25.9917C42.4745 29.2423 44.8742 30.6081 47.6024 30.6081C49.1309 30.6081 50.2392 30.4206 51.1607 30.1394C51.7858 29.9489 52.4399 30.3329 52.5917 30.978C52.7294 31.5646 52.3988 32.1583 51.833 32.3447C50.7286 32.7106 49.1881 33.0251 47.1824 33.0251C41.964 33.0251 38.8469 29.5406 38.8469 24.3488C38.8469 19.1569 41.8585 15.0677 46.7975 15.0677C52.3314 15.0677 53.8016 20.0106 53.8016 23.1755C53.8016 23.2985 53.7986 23.4164 53.7945 23.5293C53.7704 24.1472 53.267 24.634 52.658 24.634H43.0322ZM49.5961 22.3934C50.3076 22.3934 50.8432 21.7382 50.7146 21.0276C50.39 19.2365 49.2896 17.3083 46.5523 17.3083C44.1255 17.3083 42.7599 19.0762 42.159 20.8835C41.9118 21.6263 42.4695 22.3934 43.2412 22.3934H49.5961Z" fill="white"/>
<path d="M17.2659 30.8066C17.2479 30.7774 17.2288 30.7481 17.2087 30.7209C16.9775 30.4034 16.6067 30.2129 16.2118 30.2129C16.1736 30.2129 16.1364 30.2149 16.0973 30.219C16.0169 30.226 15.9355 30.2411 15.8541 30.2653C14.7658 30.5919 13.4484 30.7844 12.1491 30.7844C6.47247 30.7844 3.18448 27.0601 3.18448 21.2614C3.18448 15.0414 6.81915 11.4915 12.2877 11.4915C13.6383 11.4915 14.8381 11.6961 15.8269 12.0106C15.9224 12.0398 16.0179 12.059 16.1133 12.064V12.065C16.1224 12.066 16.1314 12.066 16.1405 12.066C16.1565 12.068 16.1746 12.068 16.1917 12.068H16.1927C16.5253 12.068 16.8419 11.9289 17.071 11.6921C17.0941 11.6689 17.1162 11.6437 17.1373 11.6185C17.1524 11.5993 17.1675 11.5802 17.1815 11.56C17.1956 11.5419 17.2077 11.5248 17.2187 11.5056C17.2499 11.4602 17.276 11.4129 17.3001 11.3625C17.3142 11.3312 17.3293 11.299 17.3413 11.2667C17.3544 11.2345 17.3654 11.2002 17.3755 11.1669L17.4026 11.0732C17.4669 10.8535 17.4689 10.6297 17.4187 10.4221C17.4106 10.3908 17.4026 10.3586 17.3926 10.3283C17.3815 10.2971 17.3715 10.2658 17.3584 10.2366C17.3343 10.1751 17.3051 10.1177 17.271 10.0622C17.2549 10.035 17.2358 10.0078 17.2177 9.9816C17.1996 9.95539 17.1785 9.92919 17.1584 9.90399C17.1363 9.8798 17.1152 9.85561 17.0921 9.83243C16.9554 9.69232 16.7836 9.58447 16.5856 9.52198C15.9224 9.31334 15.0522 9.1178 13.9699 9.00995H13.9689C13.4273 8.95653 12.8324 8.92528 12.1832 8.92528C12.1651 8.92528 12.145 8.92528 12.127 8.92629C12.126 8.92629 12.126 8.92629 12.126 8.92629C4.92394 8.9535 0 13.972 0 21.3673C0 29.1344 4.95007 33.3506 11.526 33.3506C13.6112 33.3506 15.3607 33.0472 16.5806 32.6632C17.1092 32.4969 17.4508 32.003 17.4508 31.4658C17.4508 31.361 17.4368 31.2551 17.4096 31.1483C17.3775 31.0243 17.3293 30.9104 17.2659 30.8066Z" fill="white"/>
<path d="M16.1133 12.065C16.1225 12.067 16.1316 12.0671 16.1407 12.0671C16.1316 12.0671 16.1225 12.066 16.1133 12.065Z" fill="white"/>
<path d="M29.9456 15.6039C28.804 15.6039 27.7308 15.9557 26.8304 16.4828C25.8969 17.01 25.1342 17.7831 24.6498 18.661H24.5805V9.59457C24.5805 8.74084 23.8982 8.04839 23.0571 8.04839C22.215 8.04839 21.5337 8.74084 21.5337 9.59457V31.4537C21.5337 32.3074 22.215 32.9999 23.0571 32.9999C23.8982 32.9999 24.5805 32.3074 24.5805 31.4537V22.7381C24.5805 22.1404 24.6147 21.6848 24.7885 21.2625C25.3422 19.5752 26.8988 18.1691 28.8724 18.1691C31.7443 18.1691 32.7482 20.4884 32.7482 23.2299V31.4527C32.7482 32.3064 33.4305 32.9989 34.2716 32.9989C35.1127 32.9989 35.795 32.3064 35.795 31.4527V22.8782C35.796 17.01 32.1965 15.6039 29.9456 15.6039Z" fill="white"/>
<path d="M18.5401 13.6081C18.4256 13.5094 18.309 13.4126 18.1904 13.3189C17.6277 13.7805 16.9172 14.0406 16.1917 14.0406C16.1646 14.0406 16.1133 14.0406 16.048 14.0365C16.0078 14.0345 15.9606 14.0315 15.9073 14.0264H15.9063C15.8109 14.0184 15.7164 13.9992 15.624 13.9771L14.1709 13.6293C13.571 13.5205 12.9339 13.464 12.2867 13.464C7.73461 13.464 5.12492 16.3064 5.12492 21.2624C5.12492 26.0622 7.68436 28.8139 12.1481 28.8139C13.2233 28.8139 14.3739 28.6536 15.3034 28.3754L15.3135 28.3714C15.5114 28.3129 15.7144 28.2746 15.9154 28.2555C16.0139 28.2464 16.1123 28.2414 16.2098 28.2414C16.9384 28.2414 17.6398 28.4984 18.1985 28.951C18.314 28.8592 18.4276 28.7655 18.5391 28.6687V13.6081H18.5401Z" fill="#990F02"/>
<path d="M56.9408 21.2967C56.9408 19.6749 56.9177 18.2376 56.8544 16.9102C56.8303 16.4092 57.2232 15.9899 57.7176 15.9899H58.631C59.0973 15.9899 59.4802 16.3659 59.4942 16.8396L59.5696 19.2476C59.5706 19.2929 59.6078 19.3292 59.652 19.3292C59.6872 19.3292 59.7183 19.306 59.7294 19.2728C60.5021 17.021 62.323 15.6039 64.3488 15.6039C64.3519 15.6039 64.3559 15.6039 64.3589 15.6039C64.8322 15.6049 65.214 16 65.214 16.4808V17.6449C65.214 18.1388 64.8131 18.5329 64.3277 18.5219C64.2785 18.5208 64.2283 18.5198 64.176 18.5198C62.0296 18.5198 60.5072 20.1718 60.0921 22.4911C60.0228 22.9124 59.9535 23.4053 59.9535 23.9325V32.122C59.9535 32.6068 59.5666 32.9989 59.0893 32.9989H57.806C57.3287 32.9989 56.9418 32.6058 56.9418 32.122V21.2967H56.9408Z" fill="white"/>
<path d="M68.2217 21.2967C68.2217 19.6749 68.1986 18.2376 68.1352 16.9102C68.1111 16.4092 68.504 15.9899 68.9984 15.9899H69.9119C70.3782 15.9899 70.761 16.3659 70.7751 16.8396L70.8504 19.2476C70.8515 19.2929 70.8886 19.3292 70.9329 19.3292C70.968 19.3292 70.9992 19.306 71.0102 19.2728C71.783 17.021 73.6038 15.6039 75.6297 15.6039C75.6327 15.6039 75.6367 15.6039 75.6397 15.6039C76.113 15.6049 76.4949 16 76.4949 16.4808V17.6449C76.4949 18.1388 76.0939 18.5329 75.6086 18.5219C75.5593 18.5208 75.5091 18.5198 75.4569 18.5198C73.3104 18.5198 71.788 20.1718 71.373 22.4911C71.3037 22.9124 71.2343 23.4053 71.2343 23.9325V32.122C71.2343 32.6068 70.8474 32.9989 70.3701 32.9989H69.0859C68.6085 32.9989 68.2217 32.6058 68.2217 32.122V21.2967Z" fill="white"/>
<path d="M81.237 15.6039C81.8168 15.6039 82.3343 15.9698 82.5363 16.5221L85.8705 25.655C86.2513 26.7799 86.6663 28.1154 86.9437 29.1344H87.013C87.3245 28.1154 87.6702 26.8152 88.0863 25.5855L91.0909 16.5614C91.2808 15.9899 91.8093 15.6049 92.4032 15.6049H92.6143C93.586 15.6049 94.2552 16.5937 93.9086 17.5139L90.0578 27.7284C87.8772 33.5623 86.389 36.5488 84.3119 38.3762C83.5331 39.0747 82.7553 39.5525 82.0811 39.869C81.3133 40.2298 80.4099 39.8176 80.1688 38.9941C79.9768 38.3389 80.2763 37.6404 80.8782 37.335C81.4017 37.0689 81.9575 36.7161 82.478 36.2686C83.309 35.6014 84.3471 34.4059 85.0394 32.8245C85.1781 32.508 85.2816 32.2621 85.2816 32.0867C85.2816 31.9113 85.2123 31.6654 85.0736 31.2783L79.6412 17.5351C79.2754 16.6108 79.9457 15.6039 80.9275 15.6039H81.237Z" fill="white"/>
<path d="M84.3571 15.8367L85.7197 19.5711C86.0745 19.6467 86.4413 19.6891 86.8181 19.6891C87.2421 19.6891 87.6531 19.6377 88.0481 19.5419L89.2509 15.9295C89.673 14.6615 90.7854 13.7795 92.0766 13.6515C91.7571 10.9896 89.5252 8.92732 86.8181 8.92732C84.1099 8.92732 81.8791 10.9896 81.5595 13.6515C82.8126 13.7755 83.913 14.6212 84.3571 15.8367Z" fill="#990F02"/>
<path d="M91.129 8.40517C91.6405 7.97276 92.0988 7.47686 92.4866 6.92652C92.5419 6.93459 92.5982 6.93761 92.6565 6.93761C93.3991 6.93761 94 6.3268 94 5.57387C94 4.81993 93.3991 4.20912 92.6565 4.20912C92.4203 4.20912 92.1982 4.27061 92.0053 4.38047C91.7199 4.54074 91.4978 4.80381 91.3883 5.1203C91.3773 5.16263 91.3652 5.20396 91.3521 5.24629C91.0808 6.16251 90.6497 7.00917 90.093 7.75303C90.4568 7.94152 90.8035 8.15923 91.129 8.40517Z" fill="#990F02"/>
<path d="M19.4375 0C19.0355 0 18.6557 0.105833 18.3291 0.291294C17.8417 0.563437 17.4639 1.01298 17.278 1.55222C17.2589 1.62379 17.2378 1.69636 17.2157 1.76691C16.6238 3.76465 15.5898 5.56583 14.2292 7.05758C15.0281 7.14023 15.7817 7.27025 16.4791 7.44765C17.4971 6.64432 18.3974 5.69485 19.1491 4.62946C19.2425 4.64458 19.339 4.64962 19.4375 4.64962C20.7037 4.64962 21.7276 3.60942 21.7276 2.32632C21.7276 1.04019 20.7037 0 19.4375 0Z" fill="#990F02"/>
</svg>
