<?xml version="1.0" encoding="utf-8"?>
<!-- Generator: Adobe Illustrator 24.1.2, SVG Export Plug-In . SVG Version: 6.00 Build 0)  -->
<svg version="1.1" id="Слой_1" xmlns="http://www.w3.org/2000/svg" xmlns:xlink="http://www.w3.org/1999/xlink" x="0px" y="0px"
	 viewBox="0 0 341.5 113.1" style="enable-background:new 0 0 341.5 113.1;" xml:space="preserve">
<path d="M339.1,20.4c-3,0-8.6,3.4-17,10.1c-8.3,6.8-16.8,14.5-25.5,23c-5.9,5.8-11.3,11.4-16.4,16.9c-0.5,0.3-1,0.6-1.6,1
	c-2,1.2-3.6,2.3-5,3.1s-3,1.7-4.8,2.4c-1.8,0.8-3.1,1.2-4,1.2s-1.4-0.3-1.4-1c0-2.1,4.5-7.2,13.5-15.3c0.2-0.2,0.3-0.4,0.3-0.7
	c0-0.6-0.5-0.9-1.4-1c-0.9-0.1-1.6,0-1.9,0.3l-3.6,3.2c-2.1,1.8-4.1,4-6.2,6.3c-0.4,0.2-0.9,0.5-1.5,0.9c-7.7,4.9-12.4,7.3-14,7.3
	c-0.9,0-1.4-0.4-1.4-1.1c0-3,8.6-12.6,25.8-28.9h17.8c0.6,0,0.9-0.4,0.9-1.2c0-0.3-0.1-0.4-0.3-0.4h-16.7c1.8-1.7,4-3.7,6.7-6.2
	s5-4.6,6.9-6.3c1.9-1.8,3.2-3,4-3.7s1.1-1.2,1.1-1.5c0-0.6-0.5-0.9-1.4-1s-1.6,0-1.9,0.3l-20,18.4h-19.5c-0.5,0-0.8,0.3-0.8,0.8
	s0.5,0.8,1.4,0.8h17.2c-9.7,9.1-16.6,16.2-20.7,21.1c-0.2,0.2-0.3,0.4-0.5,0.6c-2.6,1.8-5.1,3.3-7.4,4.6c-5.9,3.3-10.2,5-13.1,5
	c-0.9,0-1.3-0.3-1.3-0.8c0-0.9,1.2-2.3,3.6-4.1c2.4-1.8,4.7-3.7,7.1-5.7c2.4-2,3.6-3.7,3.6-5.2c0-0.7-0.2-1.4-0.7-1.9
	c-0.5-0.5-1.1-0.8-1.9-0.8c-4.6,0-11,2.8-19.1,8.4l19.5-18.9c6.7-5.1,10.1-8.2,10.1-9.1c0-0.6-0.3-0.9-0.8-0.9
	c-1,0-5.5,3.7-13.6,11.2c-5.1,3.6-13.8,9.7-26.2,18.2l0,0c-7.1,5-13.1,7.6-18,7.6c-2.7,0-4-1-4-2.9c0-1.1,0.7-2.5,2.1-4.1
	c6-1.1,10.9-2.7,14.6-4.9c3.7-2.2,5.6-4.2,5.6-5.8c0-1-0.8-1.5-2.5-1.5c-5.3,0-10.4,1.8-15.4,5.4c-2.9,2.1-4.9,4.1-6.1,6.1
	c-0.5,0.3-1.3,0.8-2.3,1.4c-2,1.2-3.6,2.3-5.1,3.1c-1.4,0.8-3,1.7-4.8,2.4c-1.8,0.8-3.3,1.2-4.4,1.2s-1.8-0.3-1.8-0.8
	s0.7-1.4,2.2-2.8s2.2-2.4,2.2-2.9l-1-2.1c0-0.2,0.1-0.3,0.3-0.3s0.6,0.1,1.1,0.1c2.5,0,5.1-0.7,7.8-2.1s3.9-3.1,3.9-5s-1.2-3-3.7-3
	s-5.4,0.8-8.9,2.5s-6.3,3.1-8.4,4.5c-2.1,1.4-5,3.3-8.5,5.8c0.3-0.7,1.6-2.3,3.9-4.9c6-3.6,13.2-8.5,21.5-14.6s15.9-12.3,22.6-18.3
	s10.1-10.2,10.1-12.4c0-1-0.8-1.5-2.4-1.5c-3,0-8.6,3.4-16.9,10.1s-16.8,14.5-25.4,23c-6,5.9-11.5,11.7-16.7,17.2
	c-2.2,1.5-4.3,2.8-6.3,3.9l-1.4,0.7c-2.9,1.6-4.6,2.4-5.1,2.4c-0.3,0-0.4-0.1-0.4-0.2c2.1-2.3,3.6-4.9,4.5-7.8s1.4-5.4,1.6-7.4
	s0.4-3.3,0.9-3.7c0.4-0.4,0.6-0.8,0.6-1.2s-0.2-0.6-0.6-0.6c-0.4,0-0.7,0.2-0.9,0.6c-0.5,1.4-5.9,5.5-16.2,12.1v0
	c-0.2,0.1-0.3,0.2-0.5,0.3c-0.1,0.1-0.3,0.2-0.4,0.3v0c-8.3,5.7-14,8.5-17.1,8.5c-0.5,0-0.7-0.3-0.7-0.8c0-1.3,3.2-5.2,9.7-11.5
	c2.6-2.6,4.2-4.3,4.7-5s0.8-1.1,0.8-1.3s0-0.3-0.1-0.3s-1-0.3-2.8-0.5c-0.1,0-0.9,0.5-2.2,1.6c-1.7-1-3.8-1.5-6.2-1.5
	c-5.2,0-9.7,1-13.4,3c-1.2-1.6-4.2-3-6.8-3c-3.1,0-5.7,1.5-6,3.4C80.3,73.4,73.1,82.5,62,90.2c-11.3,7.8-22.9,11.8-34.8,11.8
	c-9,0-15.6-1.9-19.7-5.6c-4.1-3.7-6.2-8.8-6.2-15.2c0-10.5,4.6-22.6,13.8-36.2c1.7,0.9,3.7,1.3,6,1.3c4.5,0,9.5-1.3,15-4
	S46.5,36.1,50.4,32s5.9-8,5.9-11.5c0-1.5-0.4-2.8-1.3-3.6s-2.1-1.4-3.7-1.4c-5.5,0-11.5,2.6-18.1,7.7S20.4,34.8,14.9,42.7
	c-1.9-1.5-2.8-4.1-2.8-7.6c0-5.3,2.6-10.6,7.8-16C25,13.7,31.2,9.4,38.4,6.1s13.4-4.9,18.7-4.9S66.3,2.2,69,4.5s4,5.7,4,10.3
	c0,3-1.1,6.3-3.3,9.9c-2.2,3.6-5,7-8.3,10.2s-6.9,6.7-10.8,10.4s-7.5,7.2-10.8,10.3c-3.3,3.2-6.1,6.6-8.3,10.2s-3.4,6.8-3.4,9.8
	c0,4.5,2,6.8,6.1,6.8c5.1,0,12.7-3.3,22.6-10.1c9.9-6.7,19.8-14.9,29.4-24.5s16.9-18.5,21.7-26.5c1.1,1.1,2.8,1.7,4.9,1.7
	c2.1,0,4.5-0.8,7.1-2.3c2.6-1.5,4.3-2.8,5.2-3.7s1.5-1.7,2-2.3l-0.9-0.4c-0.8,1.3-2.6,2.9-5.3,4.7c-2.7,1.8-5.1,2.8-7.2,2.8
	s-3.7-0.6-4.9-1.8c2.7-4.9,4.1-9,4.1-12.1S112,3,110.4,3s-3,1-4,2.8s-1.6,4.3-1.6,7s0.7,5.2,2.1,7.2c-4.5,8.1-11.8,17-21.7,26.6
	S65.4,64.6,55.6,71.1s-17,9.8-21.5,9.8c-2.9,0-4.3-1.4-4.3-4.3c0-4.6,5.4-11.4,16.1-20.4c4.5-3.8,8.9-7.7,13.3-11.8
	s8.2-8.4,11.3-13.2s4.7-9.4,4.7-13.8C75.3,5.8,69.3,0,57.2,0c-5.8,0-12.4,1.8-19.9,5.3S23.5,13.4,18.3,19s-7.9,11-7.9,16.3
	c0,4.1,1.2,7,3.6,8.8C9.7,50.4,6.3,56.8,3.8,63.3S0,75.9,0,81.3c0,6.7,2.1,12.1,6.3,16s10.6,5.9,19,5.9s16.8-1.7,25-5.2
	s15.5-8.3,22-14.8c6.3-6.2,10.5-13,12.8-20.5c0-0.1,0.1-0.1,0.1-0.2c0.7-1.2,3.1-1.4,5-1.5c1.7,0,3.5,1.3,4.7,2.3
	c-0.9,0.6-1.9,1.3-2.7,2c-4.4,3.9-6.7,7.6-6.7,11.1c0,1.9,0.8,2.9,2.4,2.9c4.4-0.1,10.5-3,18.4-8.8c-2.1,2.7-3.1,4.9-3.1,6.7
	c0,1.7,0.9,2.6,2.7,2.6c3.1,0,8-2.1,14.8-6.2c-0.1,0.1-0.2,0.2-0.3,0.3c-0.5,0.7-0.8,1.6-0.8,2.8s0.5,2.2,1.6,3.1
	c1,0.9,2.7,1.4,4.8,1.4c4.6,0,10.8-2.3,18.7-6.9c-1.2,1.3-2.4,2.7-3.6,4c-0.3,0.3-0.4,0.6-0.4,0.8c0,0.4,0.5,0.6,1.6,0.6
	s1.7-0.1,2-0.4l3.6-3c14.5-10.3,24.2-15.5,29.1-15.5c0.5,0,0.7,0.2,0.7,0.7c0,1.3-1.3,2.7-3.8,4.4s-5.7,2.5-9.4,2.5h-1.2
	c-0.2,0-0.3,0.1-0.3,0.4c0,0.8,0.7,1.3,2,1.5c0.3,0,0.5,0.2,0.5,0.5s-0.8,1.2-2.4,2.7c-1.6,1.4-2.3,2.6-2.3,3.6
	c0,2.1,1.2,3.1,3.5,3.1s5.6-1.1,9.7-3.2c3-1.5,5.6-3,7.8-4.4c-0.2,0.6-0.3,1.2-0.3,1.8c0,3.3,2,5,6,5c5.6,0,12.3-2.8,20.2-8.3v0
	c3.2-2,6.3-4.1,9.3-6.2l8.1-5.5c-37,34.4-55.5,52.1-55.5,53c0,0.5,0.6,0.7,1.8,0.7s2-0.3,2.5-0.8s3.3-3.3,8.4-8.3l24.4-23.4
	c6.9-6.3,11.8-10.4,14.8-12.2c6.3-3.9,10.9-5.8,14-5.8c1.1,0,1.7,0.2,1.7,0.7s-1.2,1.5-3.6,3.1s-4.9,3.6-7.3,5.8
	c-2.4,2.2-3.6,4.2-3.6,6s1,2.7,3,2.7s4.5-0.7,7.6-1.9c3.1-1.3,5.4-2.4,7-3.4c1.6-0.8,3-1.7,4.4-2.5c-1.3,1.9-1.9,3.5-1.9,4.8
	c0,1.5,1,2.2,3,2.2c3.2,0,8.4-2.2,15.4-6.5c-1.2,1.7-1.8,3-1.8,4c0,1.7,1,2.5,3,2.5s5-1,9-3c1.9-1,3.7-1.9,5.4-2.9
	c-1.3,1.4-2.5,2.8-3.7,4.1c-0.3,0.3-0.4,0.6-0.4,0.8c0,0.4,0.5,0.6,1.6,0.6s1.7-0.1,2-0.4l3.6-3c14.5-10.3,24.2-15.5,29.1-15.5
	c0.5,0,0.7,0.2,0.7,0.7c0,1.3-1.3,2.7-3.8,4.4s-5.7,2.5-9.4,2.5h-1.2c-0.2,0-0.3,0.1-0.3,0.4c0,0.8,0.7,1.3,2,1.5
	c0.3,0,0.5,0.2,0.5,0.5s-0.8,1.2-2.4,2.7s-2.4,2.6-2.4,3.6c0,2.1,1.2,3.1,3.5,3.1s5.6-1.1,9.7-3.2s7.4-4.1,9.9-5.8l-0.2-1.5
	c-0.1,0.1-1.2,0.7-3.1,1.9c-2,1.2-3.6,2.3-5,3.1s-3,1.7-4.8,2.4s-3.3,1.2-4.5,1.2s-1.8-0.3-1.8-0.8s0.7-1.4,2.2-2.8s2.2-2.4,2.2-2.9
	l-1-2.1c0-0.2,0.1-0.3,0.3-0.3s0.6,0.1,1.1,0.1c2.5,0,5.1-0.7,7.8-2.1s4-3.1,4-5s-1.2-3-3.7-3s-5.5,0.8-9,2.5s-6.3,3.1-8.5,4.5
	s-5,3.3-8.5,5.8c0.3-0.7,1.6-2.3,3.9-4.9c6-3.6,13.2-8.5,21.5-14.6s15.9-12.3,22.5-18.3s10-10.2,10-12.3
	C341.5,20.9,340.7,20.4,339.1,20.4z M196.3,63c3.3-2,5.4-3,6.5-3s1.6,0.3,1.6,0.8c0,1.2-1.6,2.8-4.9,4.8c-3.2,2-7.1,3.3-11.6,4.1
	C190.3,67.3,193,65.1,196.3,63z M186.8,36.3c10.5-9.5,17.1-14.3,19.8-14.3c0.7,0,1,0.2,1,0.7c0,2.1-5.8,8-17.3,17.6
	S168.1,57.8,158.5,64C166.8,55.1,176.3,45.8,186.8,36.3z M33.7,24.3c6.3-5.1,11.8-7.6,16.6-7.6c2.4,0,3.6,1,3.6,3
	c0,3.3-1.9,6.9-5.6,10.9s-8.2,7.3-13.4,10s-9.8,4-13.8,4c-2.1,0-3.7-0.4-5-1.1C21.6,35.8,27.4,29.4,33.7,24.3z M106.3,12.6
	c0-2.3,0.3-4.3,1.1-5.8c0.7-1.6,1.6-2.3,2.7-2.3c0.9,0,1.4,0.8,1.4,2.3c0,3.2-1.2,7.2-3.7,11.9C106.8,16.9,106.3,14.9,106.3,12.6z
	 M99.4,73.9c-4.2,2.6-7.6,3.8-10.2,3.8c-0.7,0-1.1-0.4-1.1-1.2s0.7-2.1,2-3.8s3-3.5,5-5.3s4.4-3.3,7.1-4.7c2.7-1.3,4.9-2,6.6-2
	s3,0.1,3.9,0.4c1,0.3,1.4,0.6,1.4,1s-1.4,1.8-4.3,4.2C107.2,68.9,103.7,71.4,99.4,73.9z M125.6,79.9c-0.9,0-1.7-0.3-2.4-0.9
	s-1.2-1.2-1.2-1.7c0-0.5,0.2-0.8,0.5-1c1.1-0.5,1.6-1.1,1.6-1.8c0-1.1-0.5-1.6-1.5-1.6c-0.3,0-0.5,0.1-0.7,0.1
	c0.8-0.5,1.7-1.1,2.6-1.7c2.3-1.4,6.6-4.2,12.7-8.4v0.3c-0.6,3.7-1.9,7.3-4.1,11.1S128.5,79.9,125.6,79.9z M322.1,40.3
	C310.6,49.9,300,57.8,290.4,64c8.3-8.9,17.8-18.2,28.3-27.7S335.7,22,338.4,22c0.7,0,1,0.2,1,0.7C339.4,24.8,333.6,30.7,322.1,40.3z
	"/>
<circle cx="279.3" cy="56.1" r="2"/>
</svg>
